<?xml version="1.0" encoding="UTF-8" standalone="no"?>
<!-- Created with Inkscape (http://www.inkscape.org/) -->

<svg
   version="1.1"
   id="svg6161"
   width="800"
   height="800"
   viewBox="0 0 800 800"
   sodipodi:docname="japanese-gate-pdv.svg"
   inkscape:version="1.2 (dc2aedaf03, 2022-05-15)"
   xmlns:inkscape="http://www.inkscape.org/namespaces/inkscape"
   xmlns:sodipodi="http://sodipodi.sourceforge.net/DTD/sodipodi-0.dtd"
   xmlns="http://www.w3.org/2000/svg"
   xmlns:svg="http://www.w3.org/2000/svg">
  <defs
     id="defs6165">
    <clipPath
       clipPathUnits="userSpaceOnUse"
       id="clipPath6231">
      <path
         d="M 0,600 H 600 V 0 H 0 Z"
         id="path6229" />
    </clipPath>
  </defs>
  <sodipodi:namedview
     id="namedview6163"
     pagecolor="#ffffff"
     bordercolor="#000000"
     borderopacity="0.25"
     inkscape:showpageshadow="2"
     inkscape:pageopacity="0.0"
     inkscape:pagecheckerboard="0"
     inkscape:deskcolor="#d1d1d1"
     showgrid="false"
     inkscape:zoom="1.04625"
     inkscape:cx="400"
     inkscape:cy="400.4779"
     inkscape:window-width="1920"
     inkscape:window-height="1017"
     inkscape:window-x="-8"
     inkscape:window-y="-8"
     inkscape:window-maximized="1"
     inkscape:current-layer="g6169">
    <inkscape:page
       x="0"
       y="0"
       id="page6167"
       width="800"
       height="800" />
  </sodipodi:namedview>
  <g
     id="g6169"
     inkscape:groupmode="layer"
     inkscape:label="Page 1"
     transform="matrix(1.3333333,0,0,-1.3333333,0,800)">
    <path
       d="m 86.884,252.026 h 95.271 v 22.631 H 86.884 Z"
       style="fill:#9e2800;fill-opacity:1;fill-rule:evenodd;stroke:none"
       id="path6171" />
    <path
       d="m 95.029,144.062 h 27.383 V 282.123 H 95.029 Z"
       style="fill:#cc3300;fill-opacity:1;fill-rule:evenodd;stroke:none"
       id="path6173" />
    <path
       d="m 110.871,144.062 h 11.541 v 138.061 h -11.541 z"
       style="fill:#b32d00;fill-opacity:1;fill-rule:evenodd;stroke:none"
       id="path6175" />
    <path
       d="m 420.9,252.026 h 95.271 v 22.631 H 420.9 Z"
       style="fill:#9e2800;fill-opacity:1;fill-rule:evenodd;stroke:none"
       id="path6177" />
    <path
       d="m 480.642,144.062 h 27.383 v 138.061 h -27.383 z"
       style="fill:#cc3300;fill-opacity:1;fill-rule:evenodd;stroke:none"
       id="path6179" />
    <path
       d="m 480.642,144.062 h 11.542 v 138.061 h -11.542 z"
       style="fill:#b32d00;fill-opacity:1;fill-rule:evenodd;stroke:none"
       id="path6181" />
    <g
       id="g6183"
       transform="translate(388.5996,351.9893)">
      <path
         d="M 0,0 V 23.535 L 8.594,18.104 H 60.71 l 8.594,5.431 V 0 Z"
         style="fill:#9e2800;fill-opacity:1;fill-rule:evenodd;stroke:none"
         id="path6185" />
    </g>
    <g
       id="g6187"
       transform="translate(145.1523,351.9893)">
      <path
         d="m 0,0 v 23.535 l 8.592,-5.431 h 52.116 l 8.594,5.431 0,-23.535 z"
         style="fill:#9e2800;fill-opacity:1;fill-rule:evenodd;stroke:none"
         id="path6189" />
    </g>
    <path
       d="m 126.372,309.389 h 350.309 v 43.449 H 126.372 Z"
       style="fill:#9e2800;fill-opacity:1;fill-rule:evenodd;stroke:none"
       id="path6191" />
    <path
       d="M 153.744,157.96 H 205.86 V 404.645 H 153.744 Z"
       style="fill:#cc3300;fill-opacity:1;fill-rule:evenodd;stroke:none"
       id="path6193" />
    <path
       d="m 146.797,144.062 h 66.014 v 72.964 h -66.014 z"
       style="fill:#333333;fill-opacity:1;fill-rule:evenodd;stroke:none"
       id="path6195" />
    <path
       d="M 185.706,217.026 H 205.86 V 404.645 H 185.706 Z"
       style="fill:#b32d00;fill-opacity:1;fill-rule:evenodd;stroke:none"
       id="path6197" />
    <path
       d="m 187.574,144.062 h 25.236 v 72.964 h -25.236 z"
       style="fill:#1a1a1a;fill-opacity:1;fill-rule:evenodd;stroke:none"
       id="path6199" />
    <path
       d="m 397.193,157.96 h 52.116 v 246.685 h -52.116 z"
       style="fill:#cc3300;fill-opacity:1;fill-rule:evenodd;stroke:none"
       id="path6201" />
    <path
       d="m 390.243,144.062 h 66.015 v 72.964 h -66.015 z"
       style="fill:#333333;fill-opacity:1;fill-rule:evenodd;stroke:none"
       id="path6203" />
    <path
       d="m 429.153,217.026 h 20.156 v 187.619 h -20.156 z"
       style="fill:#b32d00;fill-opacity:1;fill-rule:evenodd;stroke:none"
       id="path6205" />
    <path
       d="m 431.021,144.062 h 25.237 v 72.964 h -25.237 z"
       style="fill:#1a1a1a;fill-opacity:1;fill-rule:evenodd;stroke:none"
       id="path6207" />
    <g
       id="g6209"
       transform="translate(98.3105,464.4028)">
      <path
         d="M 0,0 H 406.432 L 389.234,-62.458 H 17.199 Z"
         style="fill:#cc3300;fill-opacity:1;fill-rule:evenodd;stroke:none"
         id="path6211" />
    </g>
    <g
       id="g6213"
       transform="translate(98.3105,464.4028)">
      <path
         d="m 0,0 h 406.432 l -4.05,-14.709 H 4.051 Z"
         style="fill:#b32d00;fill-opacity:1;fill-rule:evenodd;stroke:none"
         id="path6215" />
    </g>
    <path
       d="m 153.744,387.009 h 31.962 v 14.936 h -31.962 z"
       style="fill:#b32d00;fill-opacity:1;fill-rule:evenodd;stroke:none"
       id="path6217" />
    <path
       d="m 185.706,387.009 h 20.154 v 14.936 h -20.154 z"
       style="fill:#9e2800;fill-opacity:1;fill-rule:evenodd;stroke:none"
       id="path6219" />
    <path
       d="m 397.193,387.009 h 31.96 v 14.936 h -31.96 z"
       style="fill:#b32d00;fill-opacity:1;fill-rule:evenodd;stroke:none"
       id="path6221" />
    <path
       d="m 429.153,387.009 h 20.156 v 14.936 h -20.156 z"
       style="fill:#9e2800;fill-opacity:1;fill-rule:evenodd;stroke:none"
       id="path6223" />
    <g
       id="g6225">
      <g
         id="g6227"
         clip-path="url(#clipPath6231)">
        <g
           id="g6233"
           transform="translate(47.8438,509.4355)">
          <path
             d="m 0,0 29.083,-45.033 h 449.2 L 507.367,0 C 348.843,-34.252 158.523,-34.252 0,0"
             style="fill:#333333;fill-opacity:1;fill-rule:evenodd;stroke:none"
             id="path6235" />
        </g>
        <g
           id="g6237"
           transform="translate(275.9561,464.4028)">
          <path
             d="m 0,0 h 51.143 v -55.101 c 0,-14.064 -11.507,-25.57 -25.572,-25.57 C 11.508,-80.671 0,-69.165 0,-55.101 Z"
             style="fill:#1a1a1a;fill-opacity:1;fill-rule:evenodd;stroke:none"
             id="path6239" />
        </g>
      </g>
    </g>
  </g>
</svg>
